<?xml version="1.0" encoding="utf-8"?><svg viewBox="0 0 1920 502.66" xmlns="http://www.w3.org/2000/svg" xmlns:xlink="http://www.w3.org/1999/xlink"><style>:root>svg{display:none}:root>svg:target{display:block}</style><svg viewBox="0 0 13 8" id="arrow-swiper-next" xmlns="http://www.w3.org/2000/svg"><path fill-rule="evenodd" clip-rule="evenodd" d="M9.334.146l3.182 3.182a.5.5 0 010 .708L9.334 7.218a.5.5 0 11-.707-.708l2.328-2.328H0v-1h10.955L8.627.854a.5.5 0 11.707-.708z"/></svg><svg viewBox="0 0 13 8" id="arrow-swiper-prev" xmlns="http://www.w3.org/2000/svg"><path fill-rule="evenodd" clip-rule="evenodd" d="M3.666 7.854L.484 4.672a.5.5 0 010-.708L3.666.782a.5.5 0 11.707.708L2.045 3.818H13v1H2.045l2.328 2.328a.5.5 0 11-.707.708z"/></svg><svg viewBox="0 0 13 8" id="arrow_button" xmlns="http://www.w3.org/2000/svg"><path fill-rule="evenodd" clip-rule="evenodd" d="M9.334.146l3.182 3.182a.5.5 0 010 .708L9.334 7.218a.5.5 0 11-.707-.708l2.328-2.328H0v-1h10.955L8.627.854a.5.5 0 11.707-.708z"/></svg><svg viewBox="0 0 24 24" id="basket" xmlns="http://www.w3.org/2000/svg"><g clip-path="url(#da)"><path fill-rule="evenodd" clip-rule="evenodd" d="M.477 3.054c-.401.118-.595.534-.401.852.188.298.237.308 2.033.324 1.348.01 1.657.03 1.706.087.024.04.285 1.093.576 2.335l.004.017c.376 1.625.55 2.375.715 3.127.143.645.28 1.29.535 2.49l.112.53c.443 2.073.655 2.945.758 3.14.274.508.856.878 1.542.99.461.073 11.762.073 12.242-.004.655-.103 1.238-.467 1.535-.96.073-.123.558-1.848 1.165-4.152.899-3.418 1.032-3.977.996-4.224-.08-.59-.547-1.165-1.178-1.421l-.34-.144-8.375-.025-8.376-.026-.218-.934c-.121-.513-.267-1.037-.322-1.165-.127-.282-.491-.595-.874-.755-.273-.112-.352-.118-1.954-.133-1.214-.01-1.724.005-1.881.051zm21.916 4.388c.103.098.175.226.175.308 0 .247-1.948 7.575-2.057 7.734a.631.631 0 01-.31.216c-.303.087-11.713.087-12.017 0a.6.6 0 01-.31-.216c-.066-.092-.327-1.226-.691-2.925a704.71 704.71 0 00-1.099-5.173l-.036-.139 8.084.01 8.084.016.176.17zM9 18.09c-1.044.387-1.341 1.712-.557 2.492.33.33.55.419 1.044.419.652 0 1.1-.273 1.398-.85.158-.317.152-.97-.019-1.3-.36-.692-1.17-1.022-1.866-.761zm8.478.544c.205-.285.39-.424.749-.551.614-.234 1.407.05 1.772.633.173.279.192.367.192.797 0 .43-.02.52-.192.798-.122.19-.314.38-.505.5-.276.165-.378.19-.768.19-.365 0-.512-.032-.742-.158-.8-.443-1.043-1.481-.506-2.21z"/></g><defs><clipPath id="da"><path d="M0 0h24v23.999H0z"/></clipPath></defs></svg><svg viewBox="0 0 24 24" id="button-arrow" xmlns="http://www.w3.org/2000/svg"><path fill-rule="evenodd" clip-rule="evenodd" d="M15.334 9.146l3.182 3.182a.5.5 0 010 .708l-3.182 3.182a.5.5 0 11-.707-.708l2.328-2.328H6v-1h10.955l-2.328-2.328a.5.5 0 01.707-.708z"/></svg><svg viewBox="0 0 502.664 502.664" id="icon" xmlns="http://www.w3.org/2000/svg"><path d="M153.821 358.226L0 274.337v-46.463l153.821-83.414v54.574L46.636 250.523l107.185 53.431v54.272zm26.273 29.358L282.103 115.08h32.227L212.084 387.584h-31.99zm168.749-29.358v-54.272l107.164-52.999-107.164-52.59v-53.927l153.821 83.522v46.183l-153.821 84.083z"/></svg><svg viewBox="0 0 1920 1" id="line" xmlns="http://www.w3.org/2000/svg"><path fill-rule="evenodd" clip-rule="evenodd" d="M1920 1H0V0h1920v1z"/></svg><svg viewBox="0 0 221 56" id="sign" xmlns="http://www.w3.org/2000/svg"><path d="M.34 31.54c-.129-.084-.112-.194.05-.33a88.76 88.76 0 01.347-2.076c.139-.665.289-1.322.449-1.97.158-.667.326-1.336.504-2.005.194-.691.395-1.413.603-2.165.076-.186.037-.358-.12-.517a2.898 2.898 0 00-.5-.502 2.33 2.33 0 01-.418-.541c-.083-.207-.03-.429.159-.667a.724.724 0 01.193-.111c.131-.055.273-.101.426-.139.151-.056.283-.101.398-.134a1.94 1.94 0 00.251-.118c.054-.046.15-.155.287-.329.154-.194.247-.323.279-.386.25-.56.486-1.06.71-1.498.244-.442.458-.88.643-1.314.205-.437.378-.89.52-1.359.142-.468.256-1.013.341-1.632.031-.24-.044-.379-.226-.416a3.042 3.042 0 00-.576-.14 1.34 1.34 0 01-.554-.2c-.152-.12-.19-.362-.114-.724.052-.223.394-.499 1.024-.828.65-.331 1.475-.673 2.476-1.026s2.13-.7 3.388-1.044a65.251 65.251 0 013.787-.913 50.052 50.052 0 013.643-.631c1.16-.175 2.153-.251 2.982-.23.826.002 1.43.119 1.81.35.379.211.41.571.097 1.08-.17.059-.354.09-.55.093a7.93 7.93 0 01-.57-.08 5.67 5.67 0 00-.628-.075 1.69 1.69 0 00-.618.013 26.28 26.28 0 01-2.725.406c-.895.085-1.788.18-2.68.283-.893.104-1.78.247-2.664.429a13 13 0 00-2.623.777c-.6.247-1.117.622-1.55 1.125-.435.483-.837 1.09-1.204 1.821-.35.71-.697 1.527-1.041 2.452-.325.923-.698 1.94-1.12 3.05.22.034.614-.052 1.18-.255.586-.206 1.246-.45 1.98-.732a56.65 56.65 0 012.373-.896 17.512 17.512 0 012.335-.715c.745-.185 1.405-.262 1.979-.23.571.011.976.19 1.213.536.024.037.04.094.05.172.008.077.004.127-.013.148-1.01.276-2.06.545-3.15.81a47.43 47.43 0 00-3.205.846 24.973 24.973 0 00-3.051 1.152c-.992.43-1.912.97-2.76 1.62a38.797 38.797 0 00-1.512 4.246 47.54 47.54 0 00-1.053 4.37c.54-.26 1.168-.52 1.885-.78.734-.283 1.431-.54 2.092-.775a66.105 66.105 0 012.671-.872 77.337 77.337 0 014.675-1.135 30.122 30.122 0 014.763-.643.45.45 0 01.318.198c.072.11.126.241.164.394.035.134.05.27.047.408a1.877 1.877 0 01-.024.297c-2.128.13-4.224.454-6.288.97a75.797 75.797 0 00-6.072 1.799 9 9 0 00-1.175.55c-.443.248-.908.479-1.394.693-.467.212-.93.374-1.389.486-.439.11-.826.077-1.162-.1a.781.781 0 01-.22-.122.445.445 0 01-.144-.22zm33.485-4.228a188.491 188.491 0 01-3.49-3.87c-.887-1.037-1.605-1.799-2.153-2.286-.549-.486-.977-.702-1.285-.646-.308.055-.613.396-.913 1.02-.284.604-.623 1.489-1.018 2.656s-.953 2.618-1.675 4.354c-.092.227-.202.377-.331.451a.541.541 0 01-.35.041.9.9 0 01-.353-.254 1.9 1.9 0 01-.284-.409c-.08-.187-.056-.564.075-1.13.128-.585.332-1.287.61-2.106.295-.84.64-1.765 1.033-2.775.41-1.03.839-2.084 1.284-3.158.464-1.077.92-2.142 1.367-3.197.467-1.058.894-2.032 1.282-2.922.405-.913.764-1.712 1.077-2.397.314-.685.54-1.194.678-1.524.124-.113.259-.139.404-.077.164.06.305.171.422.334.135.142.233.307.294.497.06.17.057.318-.007.443l-2.083 4.903.078.67c.418.05.92-.039 1.503-.264a14.8 14.8 0 001.894-.958 25.32 25.32 0 002.057-1.331 86.08 86.08 0 001.949-1.496c.63-.506 1.184-.974 1.665-1.403a80.08 80.08 0 001.172-1.08c.236-.166.455-.23.656-.195.22.033.387.122.503.266a.78.78 0 01.21.536.937.937 0 01-.224.615 7.923 7.923 0 01-1.78 1.683c-.692.474-1.435.924-2.231 1.351-.798.408-1.617.808-2.456 1.2-.822.372-1.611.769-2.368 1.191-.757.423-1.442.876-2.054 1.36a5.964 5.964 0 00-1.46 1.645c.277.184.647.485 1.108.904.48.396.994.847 1.544 1.353.57.504 1.145 1.047 1.724 1.628a20.93 20.93 0 011.552 1.677c.475.535.867 1.03 1.176 1.486.326.434.505.786.536 1.058l.079.67a.742.742 0 01-.427.137 1.476 1.476 0 01-.37-.134 2.106 2.106 0 01-.35-.224 4.618 4.618 0 00-.27-.293zm10.571-.908c-.51-.334-.84-.875-.986-1.625-.127-.752-.12-1.618.022-2.598.16-.983.434-2.017.818-3.104a21.009 21.009 0 011.458-3.179 16.662 16.662 0 011.917-2.79c.707-.849 1.438-1.494 2.193-1.936.752-.461 1.513-.678 2.284-.65.767.01 1.507.365 2.218 1.069.445.44.735.907.872 1.403.134.476.183.981.147 1.516a8.97 8.97 0 01-.282 1.626 139.03 139.03 0 00-.454 1.675c-.13.566-.231 1.138-.302 1.716a5.162 5.162 0 00.142 1.724c.183.726.564 1.124 1.143 1.194.578.07 1.243-.046 1.994-.35.77-.306 1.565-.743 2.384-1.31a38.386 38.386 0 002.252-1.679 31.909 31.909 0 001.72-1.44l.696-.611c.53-.18.834-.176.915.011.098.166.023.45-.225.852-.23.381-.6.837-1.109 1.368-.51.512-1.1 1.023-1.768 1.534-.668.51-1.389.988-2.163 1.432a10.86 10.86 0 01-2.301 1.005 6.536 6.536 0 01-2.215.229 3.013 3.013 0 01-1.81-.85 3.113 3.113 0 01-.576-.642 1.483 1.483 0 00-.566-.553c-.26.306-.567.705-.922 1.199-.358.474-.753.963-1.186 1.465-.416.481-.873.948-1.37 1.399a6.09 6.09 0 01-1.529 1.063 4.02 4.02 0 01-1.693.404c-.57.007-1.142-.182-1.718-.567zm.205-1.027c.247.6.669.847 1.266.738.595-.129 1.258-.51 1.99-1.147.732-.636 1.47-1.469 2.216-2.5a19.96 19.96 0 001.932-3.41 15.274 15.274 0 001.115-3.847c.22-1.323.17-2.595-.15-3.817-.508-.314-1.092-.256-1.75.175-.66.411-1.342 1.051-2.047 1.92-.688.847-1.357 1.849-2.009 3.006a28.46 28.46 0 00-1.635 3.435c-.457 1.135-.786 2.196-.985 3.183-.18.984-.161 1.74.057 2.264z"/><path d="M65.855 24.257c-.024-.037-.047-.143-.067-.317a1.344 1.344 0 01-.011-.353c.033-.22.097-.6.19-1.143.093-.561.192-1.143.299-1.745.104-.622.203-1.204.298-1.746.094-.541.158-.923.19-1.143.047-.28.098-.601.154-.961.054-.38.033-.732-.064-1.055-.295-.005-.65.076-1.063.242a30.19 30.19 0 01-1.25.411 3.92 3.92 0 01-1.164.136c-.358-.037-.637-.24-.838-.61.176-.513.49-.864.94-1.054.447-.21.939-.375 1.475-.496a12.25 12.25 0 001.512-.442 1.97 1.97 0 001.102-.925c.115-.524.248-1.16.397-1.904l.518-2.39c.178-.828.378-1.647.598-2.46.24-.814.498-1.542.778-2.184.197-.16.37-.191.52-.09.15.1.267.263.352.49.102.204.177.421.223.652.047.23.065.386.055.465a7.465 7.465 0 01-.421 1.701 46.636 46.636 0 00-.586 1.809 15.537 15.537 0 00-.379 1.814 3.448 3.448 0 00.194 1.658l6.256-.73c.02-.001.076.06.17.188.09.107.17.196.237.267.129.26.044.457-.255.59-.3.133-.709.25-1.228.35-.521.08-1.12.17-1.797.268-.66.077-1.294.2-1.904.37a5.945 5.945 0 00-1.579.626c-.462.25-.757.59-.884 1.018a73.248 73.248 0 00-.939 4.09c-.275 1.35-.529 2.717-.76 4.1a3.664 3.664 0 01-.2.319 3.02 3.02 0 01-.34.364.631.631 0 01-.398.135c-.118-.006-.229-.111-.332-.315zm12.338-1.439c-.605-.126-1.085-.365-1.44-.717a3.461 3.461 0 01-.739-1.27 4.94 4.94 0 01-.234-1.507 9.49 9.49 0 01.17-1.583c.509-.688 1.076-1.472 1.701-2.351a45.56 45.56 0 012.05-2.658 29.339 29.339 0 012.28-2.448c.814-.783 1.656-1.403 2.527-1.858.295-.172.539-.19.731-.056.21.113.372.32.486.622.114.301.184.657.213 1.066.047.408.064.809.051 1.204a7.15 7.15 0 01-.11 1.074c-.061.322-.133.547-.217.675-.2.298-.62.672-1.256 1.12-.616.445-1.306.938-2.069 1.48a76.44 76.44 0 00-2.288 1.623c-.76.56-1.376 1.104-1.845 1.63-.472.508-.73.99-.775 1.448-.045.457.274.833.957 1.127.669 0 1.46-.121 2.376-.365.933-.266 1.87-.572 2.813-.918.96-.368 1.881-.73 2.764-1.09a84.54 84.54 0 012.166-.9l.386.279c-.361.612-1 1.208-1.915 1.786a18.925 18.925 0 01-3.007 1.53 20.72 20.72 0 01-3.22.966c-1.059.202-1.91.232-2.556.091zm5.659-11.927c-.022-.017-.157.088-.406.313-.251.207-.563.489-.934.846-.354.337-.742.716-1.165 1.14-.405.4-.784.779-1.136 1.134-.332.354-.61.662-.836.924-.227.243-.322.362-.283.357.317.022.71-.063 1.18-.255a9.37 9.37 0 001.468-.82c.511-.335.99-.696 1.437-1.082.444-.406.783-.79 1.016-1.15.252-.365.364-.673.335-.925-.01-.254-.236-.415-.676-.481zm5.37 10.642c-.041-.015-.067-.238-.078-.67a95.5 95.5 0 01.04-1.685 53.046 53.046 0 01.353-4.554c.089-.758.198-1.42.33-1.985.147-.588.305-1 .475-1.236.12-.151.255-.167.407-.047.15.1.303.24.462.418.156.159.31.308.465.447.151.12.298.113.44-.022.455-.82.963-1.606 1.524-2.36a11.444 11.444 0 011.972-2.059c.07-.067.274-.179.61-.336.333-.177.716-.349 1.149-.517.43-.188.873-.348 1.33-.48.474-.153.876-.24 1.209-.259.349-.04.592.02.728.18.154.14.128.418-.079.836-1.162.155-2.209.621-3.14 1.398a13.83 13.83 0 00-2.51 2.77 22.78 22.78 0 00-1.958 3.444 61.015 61.015 0 00-1.466 3.356 143.52 143.52 0 01-1 2.565c-.254.678-.46 1.027-.615 1.045a1.47 1.47 0 01-.275-.086 4.756 4.756 0 00-.373-.163zm13.618-1.588c.497-2.653.979-4.764 1.445-6.333.483-1.59.903-2.71 1.26-3.361.376-.654.654-.883.834-.688.18.196.224.741.132 1.637-.073.893-.324 2.112-.754 3.657-.412 1.522-1.042 3.287-1.89 5.293a1.04 1.04 0 01-.549.094.55.55 0 01-.478-.299zm3.461-14.59c-.05-.093-.09-.265-.119-.517-.029-.253-.028-.41.004-.473.428-.207.765-.266 1.012-.177.246.09.412.247.497.473.083.207.101.44.053.702-.029.259-.113.465-.253.62-.141.134-.323.175-.546.122-.205-.074-.421-.325-.648-.75zm14.96 12.443a5.669 5.669 0 01-.075-1.908c.1-.66.25-1.308.452-1.94.218-.655.448-1.302.688-1.94a18.5 18.5 0 00.634-1.902c.163-.628.26-1.23.291-1.803a3.693 3.693 0 00-.317-1.704c-.505-.118-1.063-.013-1.674.313-.591.325-1.206.79-1.843 1.395a23.972 23.972 0 00-1.972 2.059 74.202 74.202 0 00-1.938 2.35l-1.774 2.241a23.94 23.94 0 01-1.56 1.804c-.456.466-.853.778-1.188.935-.338.138-.586.039-.743-.297-.022-.017.057-.272.235-.765.196-.514.427-1.15.692-1.909l.922-2.467c.349-.886.676-1.71.98-2.474.302-.782.569-1.443.801-1.98.232-.54.385-.832.458-.88.439.224.678.5.716.83.056.309.046.644-.03 1.007-.078.343-.174.699-.288 1.066-.096.365-.074.716.064 1.054.285-.25.678-.59 1.178-1.022a60.882 60.882 0 011.665-1.403 51.495 51.495 0 011.898-1.43 13.61 13.61 0 011.903-1.137c.594-.305 1.132-.496 1.614-.572.503-.078.888.025 1.157.308s.397.79.384 1.519c.003.707-.185 1.702-.567 2.986-.042.142-.149.489-.321 1.04-.154.53-.332 1.11-.534 1.743-.184.612-.362 1.193-.534 1.744l-.296 1.008a8.93 8.93 0 00-.036.446c.003.197 0 .423-.009.68a4.724 4.724 0 01-.093.719 1.346 1.346 0 01-.234.528c-.103.13-.24.136-.411.018-.173-.137-.271-.223-.295-.26zm7.03-1.173c-.511-.334-.839-.876-.986-1.626-.127-.752-.119-1.618.022-2.598.161-.982.433-2.017.818-3.104a21.08 21.08 0 011.458-3.178 16.625 16.625 0 011.917-2.79c.707-.849 1.438-1.495 2.192-1.937.753-.46 1.514-.677 2.284-.65.768.01 1.508.366 2.219 1.07.445.44.735.907.871 1.402.135.476.184.982.148 1.517a8.964 8.964 0 01-.283 1.625c-.152.55-.303 1.107-.453 1.676a16.532 16.532 0 00-.302 1.716 5.16 5.16 0 00.142 1.724c.183.725.564 1.123 1.142 1.194.579.07 1.244-.047 1.995-.35.77-.307 1.565-.744 2.384-1.311a38.628 38.628 0 002.252-1.678 31.925 31.925 0 001.72-1.44l.695-.612c.53-.18.835-.176.916.012.098.165.023.45-.225.852-.231.38-.601.837-1.109 1.368a17.47 17.47 0 01-1.768 1.533c-.668.51-1.389.988-2.163 1.432-.774.444-1.541.78-2.301 1.006a6.528 6.528 0 01-2.215.229 3.011 3.011 0 01-1.81-.851 3.082 3.082 0 01-.576-.641 1.492 1.492 0 00-.566-.553c-.26.305-.567.705-.922 1.198a29.11 29.11 0 01-1.186 1.466c-.416.48-.873.947-1.371 1.398a6.06 6.06 0 01-1.528 1.063 4 4 0 01-1.693.404c-.569.008-1.142-.181-1.718-.566zm.205-1.027c.247.6.669.846 1.266.737.594-.128 1.258-.51 1.99-1.146.732-.636 1.47-1.47 2.215-2.5a19.977 19.977 0 001.933-3.41 15.29 15.29 0 001.115-3.847c.219-1.324.169-2.596-.15-3.817-.509-.314-1.092-.256-1.75.174-.659.412-1.342 1.052-2.047 1.92-.688.847-1.357 1.85-2.009 3.007a28.634 28.634 0 00-1.635 3.435c-.457 1.135-.786 2.196-.986 3.182-.18.985-.161 1.74.058 2.265zM82.48 55.542a1.694 1.694 0 01-.183-.804c.024-.298.078-.6.16-.904.083-.305.176-.6.28-.888.124-.29.22-.566.287-.83.074-.205.19-.563.347-1.072a62.14 62.14 0 00.515-1.653c.187-.592.357-1.153.512-1.682.154-.53.269-.897.343-1.102.09-.246.046-.448-.13-.604a4.161 4.161 0 00-.53-.499 2.973 2.973 0 01-.439-.48c-.097-.165-.044-.378.162-.638a.97.97 0 01.493-.323c.21-.064.429-.119.66-.165a3.16 3.16 0 00.62-.25c.184-.1.321-.273.41-.52l2.585-6.672c-.197-.508-.296-.938-.298-1.292.018-.356.099-.67.244-.943.165-.275.38-.536.646-.783.286-.25.607-.533.963-.85 1.962-.543 3.89-1.033 5.787-1.47 1.915-.44 3.896-.73 5.945-.87.118.005.274.075.467.21.19.116.355.264.494.444a.78.78 0 01.206.507c.021.175-.092.306-.337.393-.02.003-.079 0-.178-.008a5.927 5.927 0 00-.334-.08 5.684 5.684 0 01-.333-.079.812.812 0 00-.182-.037c-1.552.18-2.898.357-4.038.53-1.14.172-2.129.375-2.967.61-.82.214-1.526.483-2.118.808a5.613 5.613 0 00-1.507 1.237c-.416.481-.799 1.077-1.149 1.786a24.46 24.46 0 00-.999 2.565c-.166.432-.314.843-.446 1.231a6.936 6.936 0 00-.263 1.034c-.06.322-.04.585.063.789a8.592 8.592 0 003.281-.442 43.192 43.192 0 003.277-1.237 54.395 54.395 0 013.274-1.266 9.842 9.842 0 013.41-.604l.078.669c.005.039-.344.168-1.046.387a68 68 0 00-2.704.846c-1.08.343-2.271.757-3.571 1.243-1.283.464-2.51.98-3.683 1.55-1.173.569-2.193 1.18-3.06 1.831-.869.652-1.43 1.317-1.685 1.996a72.396 72.396 0 00-1.32 4.106 62.968 62.968 0 00-1.079 4.167.73.73 0 01-.457.377c-.19.062-.347-.028-.474-.269zm23.599-2.751c-.604-.126-1.084-.365-1.44-.717a3.448 3.448 0 01-.738-1.27 4.934 4.934 0 01-.235-1.507c.015-.552.071-1.08.17-1.583.509-.689 1.077-1.472 1.702-2.352a45.01 45.01 0 012.05-2.657 29.33 29.33 0 012.28-2.449c.814-.783 1.656-1.402 2.527-1.857.294-.172.538-.19.731-.056.21.113.371.32.485.622.114.301.185.657.213 1.066.047.408.065.809.052 1.204-.013.394-.05.753-.111 1.074-.061.322-.133.547-.216.674-.201.3-.62.672-1.256 1.12-.617.446-1.306.939-2.069 1.48a77.304 77.304 0 00-2.289 1.624c-.76.56-1.375 1.104-1.845 1.63-.471.508-.73.99-.775 1.448-.045.457.274.833.957 1.127.669 0 1.461-.121 2.376-.366a40.091 40.091 0 002.814-.917c.96-.368 1.881-.73 2.763-1.09a83.88 83.88 0 012.166-.9l.387.279c-.362.612-1 1.207-1.916 1.786a18.899 18.899 0 01-3.007 1.53 20.732 20.732 0 01-3.22.966c-1.058.202-1.91.232-2.556.091zm5.659-11.927c-.021-.017-.157.087-.406.313-.251.206-.562.488-.933.846-.354.337-.743.716-1.165 1.139-.406.401-.784.78-1.136 1.135-.333.354-.611.661-.837.924-.227.242-.321.362-.282.357.317.022.71-.063 1.179-.256a9.326 9.326 0 001.468-.82c.511-.334.99-.695 1.437-1.081.444-.406.783-.79 1.016-1.151.253-.364.364-.672.335-.924-.01-.254-.235-.415-.676-.482z"/><path d="M128.736 49.796c-.796-.418-1.401-.977-1.817-1.676a10.99 10.99 0 01-1.009-2.33l-.32.037c-1.422 1.464-2.678 2.583-3.768 3.36-1.069.773-1.993 1.284-2.77 1.532-.78.228-1.409.233-1.887.013a1.904 1.904 0 01-1.008-1.062c-.178-.51-.22-1.125-.127-1.844a7.612 7.612 0 01.658-2.2 9.515 9.515 0 011.421-2.23 8.86 8.86 0 012.145-1.843 9.038 9.038 0 012.851-1.1c1.073-.242 2.251-.262 3.533-.057l.279-.387 3.009-8.344c.533.017.871.213 1.013.59.142.377.182.805.12 1.284a6.02 6.02 0 01-.306 1.422c-.144.45-.254.777-.328.982-.045.123-.135.36-.271.71-.117.348-.264.768-.443 1.26-.161.472-.339.974-.532 1.508l-.558 1.54c-.161.471-.309.891-.443 1.261-.136.35-.218.576-.245.678a4.932 4.932 0 00-.227 2.356c.131.79.269 1.551.413 2.282.119.34.308.613.568.819.257.186.524.361.798.526.292.143.575.287.847.432.292.143.54.33.744.562-.048.262-.189.406-.421.433a1.645 1.645 0 01-.741-.032 3.95 3.95 0 01-.74-.267 34.46 34.46 0 01-.438-.215zm-11.006-.044c.116.32.418.384.907.19.507-.198 1.086-.55 1.734-1.059a25.795 25.795 0 002.025-1.858 23.36 23.36 0 001.908-2.11c.567-.695.995-1.325 1.284-1.89.307-.566.378-.968.213-1.204a4.133 4.133 0 00-2.065-.261 6.405 6.405 0 00-2.165.665 8.467 8.467 0 00-1.966 1.35 7.568 7.568 0 00-1.498 1.827 6.217 6.217 0 00-.723 2.148c-.09.739.025 1.472.346 2.202zm16.663-.262c-.853-.234-1.425-.669-1.715-1.304-.271-.637-.346-1.365-.225-2.185.118-.84.39-1.717.814-2.632a15.8 15.8 0 011.468-2.59 13.68 13.68 0 011.71-2.028c.601-.581 1.131-.928 1.589-1.04 1.185-.296 2.136-.318 2.854-.068.734.23 1.263.63 1.585 1.202.322.572.473 1.272.451 2.1-.023.81-.191 1.645-.504 2.507-.293.86-.715 1.706-1.267 2.537a9.87 9.87 0 01-1.872 2.165 6.806 6.806 0 01-2.296 1.3c-.836.255-1.7.267-2.592.037zm-.513-1.62c.228.602.598.913 1.112.931.511 0 1.078-.194 1.701-.581.641-.41 1.295-.957 1.962-1.645a16.477 16.477 0 001.774-2.242c.537-.79.958-1.566 1.262-2.33.321-.784.441-1.447.358-1.988-.063-.543-.373-.92-.928-1.13-.538-.233-1.399-.191-2.581.123a43.76 43.76 0 01-.939 1.054c-.386.399-.787.839-1.203 1.32a23.07 23.07 0 00-1.176 1.553 10.57 10.57 0 00-.988 1.648 6.27 6.27 0 00-.541 1.686 3.22 3.22 0 00.187 1.6zm11.571.332c-.041-.015-.067-.238-.078-.67.007-.453.02-1.015.04-1.685.02-.671.061-1.414.124-2.227.062-.813.139-1.59.23-2.328.088-.757.198-1.419.329-1.985.148-.587.306-.999.475-1.235.12-.151.256-.167.408-.047.149.1.303.24.461.418.156.159.311.308.465.447.152.12.299.113.44-.022.455-.82.963-1.606 1.524-2.36a11.462 11.462 0 011.973-2.059c.07-.067.274-.18.609-.336.334-.177.717-.35 1.149-.517a10.86 10.86 0 011.331-.48c.473-.154.876-.24 1.208-.259.349-.04.592.02.729.18.154.14.127.418-.08.836-1.161.155-2.208.62-3.14 1.398-.932.777-1.768 1.7-2.509 2.77a22.831 22.831 0 00-1.958 3.443 61.443 61.443 0 00-1.467 3.357 137.407 137.407 0 01-.999 2.564c-.255.68-.46 1.027-.615 1.045a1.464 1.464 0 01-.276-.085 4.555 4.555 0 00-.373-.163zm15.773-1.839c-.605-.126-1.085-.365-1.441-.717a3.476 3.476 0 01-.738-1.27 4.933 4.933 0 01-.234-1.507 9.43 9.43 0 01.169-1.583c.51-.689 1.077-1.473 1.702-2.352a44.79 44.79 0 012.05-2.657 29.157 29.157 0 012.281-2.449c.813-.783 1.655-1.402 2.526-1.857.295-.172.538-.19.731-.056.21.113.372.32.485.622.114.301.185.657.213 1.066.048.408.065.809.052 1.203-.013.395-.05.754-.111 1.075-.061.322-.133.547-.216.674-.201.3-.62.672-1.256 1.12-.617.446-1.306.939-2.069 1.48a75.97 75.97 0 00-2.288 1.624c-.761.56-1.376 1.104-1.845 1.63-.472.508-.731.99-.776 1.448-.045.457.274.833.958 1.127.668 0 1.46-.121 2.376-.366.932-.266 1.87-.572 2.813-.917.96-.368 1.881-.731 2.763-1.09a84.24 84.24 0 012.166-.9l.387.279c-.361.612-1 1.207-1.916 1.786a18.907 18.907 0 01-3.007 1.53 20.689 20.689 0 01-3.22.966c-1.058.202-1.91.232-2.555.091zm5.659-11.927c-.022-.017-.157.087-.406.313-.252.206-.563.488-.934.846-.354.337-.743.716-1.165 1.139-.406.401-.784.78-1.136 1.135-.333.353-.611.661-.836.923-.228.243-.322.362-.283.358.317.022.71-.063 1.179-.256a9.325 9.325 0 001.468-.82c.512-.334.991-.695 1.437-1.081.445-.406.783-.79 1.016-1.151.253-.364.365-.672.335-.924-.01-.255-.235-.415-.675-.482zm15.874 9.417a5.721 5.721 0 01-.075-1.909c.1-.66.251-1.307.453-1.94.218-.655.448-1.3.688-1.938.257-.66.469-1.294.634-1.903a9.31 9.31 0 00.291-1.804 3.706 3.706 0 00-.317-1.703c-.505-.118-1.063-.014-1.674.313-.591.325-1.206.79-1.843 1.395a23.814 23.814 0 00-1.972 2.059 75.392 75.392 0 00-1.939 2.35l-1.773 2.241a23.94 23.94 0 01-1.56 1.804c-.457.466-.853.778-1.189.935-.338.138-.585.039-.742-.297-.022-.017.057-.272.235-.765.196-.514.426-1.15.692-1.909l.922-2.467c.349-.886.675-1.71.98-2.474.302-.782.569-1.443.801-1.981.232-.538.385-.831.458-.88.439.225.678.502.716.832a2.61 2.61 0 01-.03 1.006c-.078.343-.174.699-.289 1.066-.095.365-.073.716.064 1.054.286-.25.679-.59 1.179-1.022a58.262 58.262 0 011.665-1.403 51.483 51.483 0 011.898-1.43 13.46 13.46 0 011.903-1.137c.593-.305 1.132-.496 1.614-.572.502-.078.888.025 1.157.308s.397.79.383 1.518c.004.708-.185 1.703-.566 2.986-.042.143-.149.49-.321 1.04-.155.53-.333 1.111-.534 1.744-.185.612-.363 1.193-.534 1.744l-.296 1.008a8.93 8.93 0 00-.036.446c.003.197 0 .423-.009.68a4.605 4.605 0 01-.094.718 1.33 1.33 0 01-.233.529c-.103.13-.24.136-.411.018-.173-.137-.272-.224-.296-.26zm17.673-2.739a191.75 191.75 0 01-3.489-3.87c-.888-1.037-1.606-1.798-2.154-2.285-.548-.487-.977-.702-1.285-.647-.308.056-.612.396-.913 1.021-.284.603-.623 1.489-1.018 2.655-.395 1.167-.953 2.618-1.675 4.354-.091.227-.202.378-.331.452a.541.541 0 01-.349.04.903.903 0 01-.354-.253 1.923 1.923 0 01-.284-.41c-.08-.187-.055-.563.075-1.129.129-.585.332-1.287.61-2.106.295-.84.64-1.766 1.033-2.775.411-1.031.839-2.084 1.284-3.158a564.5 564.5 0 001.367-3.198c.467-1.057.894-2.031 1.282-2.922.405-.912.764-1.711 1.077-2.396.314-.686.54-1.194.678-1.525.125-.113.259-.138.404-.076a.9.9 0 01.423.334c.134.142.232.307.293.497.06.17.057.317-.007.443l-2.083 4.903.078.67c.419.049.92-.04 1.503-.265a14.764 14.764 0 001.894-.958 25.356 25.356 0 002.057-1.33 84.717 84.717 0 001.949-1.496 41.62 41.62 0 001.666-1.404c.497-.451.888-.811 1.171-1.08.237-.165.455-.23.656-.195.22.034.388.122.503.266.134.142.204.32.21.536a.942.942 0 01-.223.616 7.935 7.935 0 01-1.78 1.682c-.692.474-1.436.925-2.232 1.352a78.04 78.04 0 01-2.456 1.2 31.37 31.37 0 00-2.368 1.19c-.757.423-1.441.877-2.053 1.361a5.944 5.944 0 00-1.46 1.645c.277.184.646.485 1.108.903.479.397.993.848 1.544 1.354.57.504 1.144 1.046 1.723 1.628a21.074 21.074 0 011.553 1.677c.475.535.867 1.03 1.176 1.485.325.434.504.787.536 1.058l.078.67a.741.741 0 01-.426.138 1.474 1.474 0 01-.37-.134 2.157 2.157 0 01-.351-.225 4.528 4.528 0 00-.27-.292zm11.253-.633c-.854-.235-1.425-.67-1.716-1.304-.271-.637-.346-1.366-.225-2.186.118-.84.39-1.717.814-2.632.422-.934.911-1.797 1.468-2.59a13.75 13.75 0 011.71-2.027c.601-.582 1.131-.928 1.59-1.04 1.184-.296 2.135-.319 2.853-.068.734.229 1.263.63 1.585 1.201.322.572.473 1.273.451 2.101-.023.809-.191 1.645-.504 2.507-.293.86-.715 1.706-1.267 2.537a9.866 9.866 0 01-1.872 2.165 6.807 6.807 0 01-2.296 1.3 4.698 4.698 0 01-2.591.036zm-.514-1.621c.228.602.598.913 1.112.932.511 0 1.078-.195 1.702-.582.64-.409 1.294-.957 1.961-1.644a16.476 16.476 0 001.774-2.242c.537-.79.958-1.567 1.262-2.33.322-.785.441-1.447.358-1.988-.063-.544-.373-.92-.928-1.13-.538-.233-1.399-.192-2.581.123a39.08 39.08 0 01-.939 1.053c-.386.4-.787.84-1.203 1.32-.397.48-.788.997-1.176 1.553-.39.537-.719 1.087-.987 1.649a6.201 6.201 0 00-.541 1.685 3.208 3.208 0 00.186 1.6z"/></svg><svg viewBox="0 0 28 28" id="tg-icon" xmlns="http://www.w3.org/2000/svg"><path fill-rule="evenodd" clip-rule="evenodd" d="M26.044 13.552c0 6.9-5.593 12.492-12.492 12.492-6.9 0-12.493-5.593-12.493-12.492 0-6.9 5.593-12.493 12.493-12.493s12.492 5.593 12.492 12.493zm1.06 0c0 7.484-6.068 13.551-13.552 13.551C6.067 27.103 0 21.036 0 13.552 0 6.067 6.067 0 13.552 0c7.484 0 13.551 6.067 13.551 13.552zm-13.39-4.138a692.005 692.005 0 015.27-2.053c.271-.098.6-.16.845-.162.365-.001.42.02.633.231.183.183.233.288.234.495 0 .145-.574 3.152-1.276 6.682-1.208 6.067-1.318 6.69-1.684 6.948-.058.041-.122.073-.199.116-.28.158-.732.184-1.092.062-.442-.149-1.764-1.126-5.058-3.736-.771-.612-1.402-1.137-1.402-1.167 0-.03 1.293-1.214 2.874-2.633 2.511-2.253 2.915-2.614 2.905-2.627-.003-.004-.035.017-.065.034-.106.06-2.966 1.862-5.723 3.608l-1.583 1.002-1.941-.66c-1.068-.362-2.042-.732-2.164-.823-.567-.42-.567-1.123 0-1.546.122-.091 1.207-.55 2.412-1.022 1.204-.47 4.36-1.708 7.014-2.75zm4.927 4.985c.678-3.41 1.232-6.257 1.232-6.326 0-.121-.059-.138-.28-.079-.061.016-3.433 1.33-7.494 2.919-6.182 2.419-7.387 2.911-7.404 3.027-.005.031-.014.055-.012.077.011.093.236.16 1.93.73l1.69.57 4.517-2.86c2.484-1.574 4.628-2.892 4.764-2.93.462-.127.842.185.748.614l-.012.052c-.064.241-.287.44-3.871 3.658-1.796 1.612-3.258 2.938-3.25 2.947.01.009 1.249.956 2.753 2.105 2.302 1.758 2.772 2.09 2.96 2.09.211 0 .498-.193.498-.334 0-.033.554-2.85 1.231-6.26z"/></svg><svg viewBox="0 0 28 28" id="wa-icon" xmlns="http://www.w3.org/2000/svg"><path fill-rule="evenodd" clip-rule="evenodd" d="M13.294.376C10.686.63 8.275 1.592 6.162 3.218c-1.03.792-2.366 2.28-3.138 3.494-.334.525-.983 1.853-1.216 2.487-1.075 2.932-1.077 6.354-.005 9.263.197.534.79 1.79 1.072 2.266l.156.264-.76 2.741c-.417 1.508-.758 2.808-.758 2.888 0 .203.199.413.422.446.14.02.822-.17 2.846-.794 1.464-.451 2.692-.82 2.728-.82.036 0 .384.165.772.366 3.369 1.746 7.336 2.006 10.871.71.635-.232 1.965-.88 2.49-1.214a14.612 14.612 0 004.353-4.35c.334-.524.983-1.853 1.216-2.487.26-.709.537-1.792.673-2.633.097-.594.116-.928.116-2.006 0-1.468-.084-2.16-.417-3.425-.25-.95-.483-1.57-.947-2.514-.699-1.422-1.425-2.43-2.587-3.593-1.163-1.161-2.172-1.887-3.596-2.585a13.143 13.143 0 00-3.91-1.24c-.776-.122-2.51-.179-3.249-.106zm3.25 1.157c2.702.468 5.006 1.684 6.92 3.655 1.826 1.879 2.96 4.144 3.392 6.777.135.824.135 2.924 0 3.748-.433 2.633-1.566 4.898-3.391 6.777-1.915 1.97-4.229 3.193-6.922 3.654-.82.14-2.433.192-3.259.104-1.85-.197-3.478-.73-5.12-1.673-.22-.127-.458-.231-.527-.231-.07 0-1.18.324-2.467.72-1.288.395-2.35.71-2.36.699-.012-.011.276-1.077.638-2.37.455-1.623.651-2.405.636-2.533-.012-.102-.132-.366-.266-.586-.875-1.441-1.486-3.236-1.703-5.01-.115-.941-.079-2.544.079-3.457.44-2.559 1.562-4.768 3.36-6.619 2.123-2.186 4.617-3.394 7.793-3.775.102-.012.72-.015 1.374-.006.907.012 1.338.042 1.822.126zM8.776 5.447c-.643.069-.78.125-1.054.43-1.203 1.335-1.94 3.238-1.86 4.795.047.926.229 1.575.754 2.696 1.387 2.965 3.645 5.533 6.202 7.054 1.526.909 3 1.391 4.73 1.55 3.21.293 5.208-.987 5.92-3.794.138-.538.158-.805.075-.96-.03-.055-.38-.296-.78-.535-.4-.24-1.151-.707-1.67-1.038-.52-.332-1.067-.66-1.216-.729-.327-.152-.798-.17-1.072-.04-.193.091-.236.14-.763.855-.346.469-1.158 1.35-1.328 1.44-.125.068-.277.012-.858-.316-1.261-.71-2.991-2.08-3.84-3.043-.638-.722-1.1-1.479-1.1-1.8 0-.043.178-.286.396-.538.7-.81.952-1.474.793-2.086-.193-.738-1.454-3.182-1.895-3.672-.234-.26-.7-.347-1.434-.269zm.975 1.435c.147.239.509.916.805 1.505.638 1.273.66 1.385.36 1.883a6.325 6.325 0 01-.614.774c-.464.504-.511.613-.442 1.026.247 1.47 2.031 3.47 4.588 5.139 1.193.778 1.95 1.107 2.344 1.016.516-.12 1.287-.802 2.028-1.795l.469-.629.173.072c.095.04.594.343 1.11.673a65.13 65.13 0 001.912 1.184c.1.082-.427 1.465-.684 1.798-.34.44-.722.758-1.184.985-.627.308-1.057.404-1.969.438-2.67.101-5.2-.937-7.504-3.077-1.575-1.463-3.175-3.791-3.906-5.682-.527-1.364-.436-2.687.287-4.147.219-.441.78-1.301.949-1.453.097-.087.283-.121.736-.135l.275-.009.267.434z"/></svg></svg>